<?xml version="1.0" encoding="UTF-8"?>
<svg xmlns="http://www.w3.org/2000/svg" width="595.276" height="841.89" version="1.1" viewBox="0 0 595.276 841.89">
  <!-- Generator: Adobe Illustrator 28.6.0, SVG Export Plug-In . SVG Version: 1.2.0 Build 709)  -->
  <g>
    <g id="Layer_2">
      <g id="Layer_3">
        <rect x="0" width="595.276" height="841.89" fill="#204320"/>
      </g>
      <path id="O" d="M301.867,498.118c-.397.093-2.099.682-2.526.798-.266-1.031-.44-1.918-.608-2.958-1.879-11.629-1.147-23.181,1.302-34.656.837-3.921,1.756-8.398,2.659-12.51-4.128.809-8.068,1.605-11.895,1.705-21.987.577-38.731-9.493-51.769-26.343-13.274-17.156-19.204-37.116-21.083-58.455-2.385-27.076,1.533-52.939,15.335-76.741,9.193-15.853,21.851-28.044,39.954-32.75,25.684-6.676,46.924,1.615,63.872,21.407,13.969,16.313,20.882,35.718,23.377,56.798,1.501,12.689,1.309,25.407-.545,38.068-2.864,19.554-9.012,37.775-21.908,53.197-8.108,9.695-17.935,17.082-29.845,21.437-2.442.893-2.481,2.605-2.821,4.448-1.54,8.355-3.725,16.62-4.582,25.072-.106,1.046-.116,2.331-.193,3.771.458-.825.926-1.515,1.072-1.781,4.86-8.85,12.571-13.437,22.061-16.262,2.245-.668,4.336-2.256,6.177-3.802,4.536-3.81,8.782-7.966,13.339-11.749,4.779-3.966,10.258-6.815,16.329-8.172,8.942-2,17.95-3.703,27.435-5.636-2.937,11.623-7.64,21.419-17.834,27.407-8.64,5.075-18.102,6.139-27.946,4.472-11.55-1.956-22.13-.121-30.82,8.424-6.339,6.233-10.081,13.52-8.932,22.716M308.653,433.801c.252-.149,1.723-1.245,1.951-1.39,1.529-1.308,2.156-1.71,3.593-3.112,8.927-8.712,14.187-19.645,17.771-31.285,7.925-25.74,8.911-51.977,3.778-78.355-2.885-14.827-8.178-28.717-17.785-40.75-14.109-17.671-43.64-18.772-58.14.461-5.6,7.428-9.751,15.503-12.506,24.283-8.527,27.175-9.384,54.755-3.457,82.514,2.831,13.257,6.676,26.112,15.093,37.298,12.531,16.653,30.977,18.079,44.977,12.504.9-.359,2.114-1.404,2.167-2.197.992-14.771.126-29.28-6.285-43.001-3.007-6.435-7.855-9.373-14.914-8.732-2.248.204-4.53.377-6.774.229-7.428-.489-14.226-7.037-14.73-13.959,2.977.323,5.976.563,8.948.99,4.504.647,8.984,2.078,11.248,6.152,2.922,5.259,8.335,4.669,12.932,7.174-4.545-7.848-7.147-15.541-6.679-24.17.184-3.393-.256-6.847-.671-10.241-.788-6.441-1.763-12.859-2.723-19.729,6.442,2.531,9.812,6.83,9.365,12.322-.279,3.427-1.53,6.795-2.517,10.139-3.146,10.66.748,27.518,8.692,37.491.507-3.395.717-6.946,1.624-10.309,1.015-3.763,1.01-7.342.267-11.135-2.224-11.36-1.437-22.372,5.096-32.333,4.454-6.792,9.223-13.377,13.903-20.129,4.075,8.229,5.308,16.923,3,26.085-2.378,9.443-7.969,17.155-13.74,24.63-6.56,8.496-7.938,18.063-6.66,28.131,1.667,13.134,4.651,27.009,3.177,40.424Z" fill="#f3f9f1"/>
      <g>
        <path d="M100.701,545.965c0,15.785-9.593,24.153-21.296,24.153-12.111,0-20.616-9.389-20.616-23.269,0-14.561,9.049-24.086,21.296-24.086,12.519,0,20.616,9.594,20.616,23.201ZM65.117,546.713c0,9.798,5.307,18.575,14.628,18.575,9.39,0,14.696-8.642,14.696-19.051,0-9.117-4.763-18.644-14.628-18.644-9.798,0-14.697,9.05-14.697,19.119Z" fill="#fff"/>
        <path d="M108.386,524.124c2.994-.612,7.28-.952,11.363-.952,6.328,0,10.41,1.156,13.268,3.742,2.313,2.041,3.606,5.171,3.606,8.709,0,6.056-3.81,10.069-8.641,11.702v.204c3.538,1.225,5.647,4.491,6.736,9.254,1.497,6.396,2.585,10.818,3.538,12.587h-6.124c-.749-1.293-1.769-5.239-3.062-10.954-1.361-6.328-3.811-8.709-9.186-8.913h-5.579v19.867h-5.919v-45.246ZM114.305,545.012h6.056c6.328,0,10.342-3.47,10.342-8.709,0-5.919-4.287-8.505-10.546-8.572-2.858,0-4.899.271-5.852.544v16.737Z" fill="#fff"/>
        <path d="M180.095,567.329c-2.653.952-7.892,2.518-14.084,2.518-6.94,0-12.655-1.77-17.146-6.056-3.946-3.811-6.396-9.934-6.396-17.078.068-13.676,9.458-23.678,24.834-23.678,5.307,0,9.458,1.157,11.431,2.109l-1.429,4.831c-2.449-1.089-5.511-1.974-10.138-1.974-11.158,0-18.438,6.94-18.438,18.439,0,11.634,7.008,18.506,17.69,18.506,3.878,0,6.532-.544,7.893-1.225v-13.676h-9.321v-4.763h15.104v22.045Z" fill="#fff"/>
        <path d="M196.558,554.946l-4.763,14.424h-6.124l15.581-45.858h7.144l15.649,45.858h-6.327l-4.899-14.424h-16.261ZM211.594,550.319l-4.491-13.199c-1.021-2.994-1.701-5.716-2.381-8.369h-.136c-.68,2.722-1.429,5.511-2.313,8.301l-4.49,13.268h13.812Z" fill="#fff"/>
        <path d="M230.778,569.37v-45.858h6.464l14.696,23.201c3.402,5.375,6.056,10.206,8.233,14.9l.136-.067c-.544-6.124-.68-11.703-.68-18.847v-19.188h5.579v45.858h-5.987l-14.561-23.27c-3.198-5.103-6.259-10.342-8.573-15.309l-.204.068c.34,5.783.476,11.294.476,18.915v19.595h-5.579Z" fill="#fff"/>
        <path d="M281.463,523.512v45.858h-5.919v-45.858h5.919Z" fill="#fff"/>
        <path d="M299.22,554.946l-4.762,14.424h-6.124l15.581-45.858h7.144l15.649,45.858h-6.328l-4.898-14.424h-16.262ZM314.257,550.319l-4.491-13.199c-1.021-2.994-1.7-5.716-2.381-8.369h-.136c-.681,2.722-1.43,5.511-2.313,8.301l-4.491,13.268h13.812Z" fill="#fff"/>
        <path d="M333.44,524.057c2.857-.477,6.6-.885,11.362-.885,5.852,0,10.138,1.36,12.859,3.81,2.518,2.178,4.015,5.512,4.015,9.594,0,4.15-1.225,7.416-3.538,9.798-3.13,3.334-8.232,5.035-14.016,5.035-1.77,0-3.402-.068-4.763-.408v18.37h-5.92v-45.313ZM339.36,546.169c1.292.34,2.925.477,4.898.477,7.144,0,11.498-3.471,11.498-9.798,0-6.056-4.286-8.981-10.817-8.981-2.586,0-4.559.204-5.579.477v17.826Z" fill="#fff"/>
        <path d="M375.555,523.512v19.188h22.181v-19.188h5.987v45.858h-5.987v-21.5h-22.181v21.5h-5.92v-45.858h5.92Z" fill="#fff"/>
        <path d="M421.408,554.946l-4.763,14.424h-6.123l15.581-45.858h7.144l15.649,45.858h-6.328l-4.898-14.424h-16.262ZM436.445,550.319l-4.491-13.199c-1.021-2.994-1.7-5.716-2.381-8.369h-.136c-.681,2.722-1.43,5.511-2.313,8.301l-4.491,13.268h13.812Z" fill="#fff"/>
        <path d="M455.629,524.124c2.994-.612,7.28-.952,11.362-.952,6.328,0,10.41,1.156,13.268,3.742,2.313,2.041,3.606,5.171,3.606,8.709,0,6.056-3.811,10.069-8.641,11.702v.204c3.537,1.225,5.646,4.491,6.735,9.254,1.497,6.396,2.586,10.818,3.538,12.587h-6.123c-.749-1.293-1.77-5.239-3.062-10.954-1.36-6.328-3.81-8.709-9.185-8.913h-5.579v19.867h-5.92v-45.246ZM461.549,545.012h6.055c6.328,0,10.342-3.47,10.342-8.709,0-5.919-4.286-8.505-10.546-8.572-2.857,0-4.898.271-5.851.544v16.737Z" fill="#fff"/>
        <path d="M530.877,549.23c-.341-6.396-.749-14.084-.681-19.799h-.204c-1.564,5.375-3.47,11.09-5.783,17.418l-8.097,22.248h-4.49l-7.417-21.84c-2.177-6.464-4.014-12.384-5.307-17.826h-.136c-.137,5.715-.477,13.403-.885,20.275l-1.225,19.663h-5.647l3.198-45.858h7.552l7.824,22.181c1.905,5.647,3.471,10.683,4.627,15.445h.204c1.157-4.627,2.79-9.662,4.831-15.445l8.164-22.181h7.553l2.857,45.858h-5.783l-1.156-20.14Z" fill="#fff"/>
      </g>
      <path id="O2" d="M307.557,447.393s-1.051.474-1.521,1.652c-.487,1.221-1.304,5.953-1.304,5.953,0,0-3.019,14.927-3.507,18.043-.488,3.115-.633,7.365-.633,7.365l1.072-1.781c4.86-8.85,12.571-13.437,22.061-16.262,2.245-.668,4.336-2.256,6.177-3.802,4.536-3.81,8.782-7.966,13.339-11.749,4.779-3.966,10.258-6.815,16.329-8.172,8.942-2,17.95-3.704,27.435-5.636-2.937,11.623-7.64,21.419-17.834,27.407-8.64,5.075-18.102,6.139-27.946,4.472-11.55-1.956-21.935.082-30.82,8.424-3.646,3.423-6.777,7.983-8.256,13.04,0,0-1.647,4.486-.282,11.772l-2.553.798s-2.423-9.442-1.389-23.116c1.019-13.48,4.769-27.008,4.769-27.008.747-.148,1.547-.336,2.39-.577.893-.255,1.733-.551,2.474-.823ZM303.928,435.967c.9-.359,2.114-1.404,2.167-2.197.992-14.771.126-29.28-6.285-43.001-3.007-6.435-7.855-9.373-14.914-8.732-2.248.204-4.53.377-6.774.229-7.428-.489-14.226-7.037-14.73-13.959,2.977.323,5.976.563,8.948.99,4.504.647,8.984,2.078,11.248,6.152,2.922,5.259,8.335,4.669,12.932,7.174-4.545-7.848-7.147-15.541-6.679-24.17.184-3.393-.256-6.847-.671-10.241-.788-6.441-1.763-12.859-2.723-19.729,6.442,2.531,9.812,6.83,9.365,12.322-.279,3.427-1.53,6.795-2.517,10.139-3.146,10.66.748,27.518,8.692,37.491.507-3.395.717-6.946,1.624-10.309,1.015-3.763,1.01-7.342.267-11.135-2.224-11.36-1.437-22.372,5.096-32.333,4.454-6.792,9.223-13.377,13.903-20.129,4.075,8.229,5.308,16.923,3,26.085-2.378,9.443-7.969,17.155-13.74,24.63-6.56,8.496-7.938,18.063-6.66,28.131,1.667,13.134,4.651,27.009,3.177,40.424" fill="#60bc52"/>
    </g>
  </g>
</svg>